{
	"asset":{
		"generator":"Khronos glTF Blender I/O v3.5.30",
		"version":"2.0"
	},
	"scene":0,
	"scenes":[
		{
			"name":"Scene.001",
			"nodes":[
				0,
				1,
				2,
				3,
				4,
				5
			]
		}
	],
	"nodes":[
		{
			"mesh":0,
			"name":"Glaseado",
			"scale":[
				0.1397155523300171,
				0.1397155523300171,
				0.1397155523300171
			],
			"translation":[
				0,
				0.07594504207372665,
				0
			]
		},
		{
			"mesh":1,
			"name":"DonaPan",
			"scale":[
				0.1397155523300171,
				0.1397155523300171,
				0.1397155523300171
			],
			"translation":[
				0,
				0.07763370871543884,
				0
			]
		},
		{
			"mesh":2,
			"name":"Chispas3",
			"rotation":[
				0.6276014447212219,
				0.2952444553375244,
				-0.6095141172409058,
				0.3839787244796753
			],
			"scale":[
				0.9891524910926819,
				0.9891526103019714,
				0.9891524314880371
			],
			"translation":[
				0.2231614589691162,
				0.1610529124736786,
				-0.04475025087594986
			]
		},
		{
			"mesh":3,
			"name":"Chispas2",
			"rotation":[
				0.6276014447212219,
				0.2952444553375244,
				-0.6095141172409058,
				0.3839787244796753
			],
			"scale":[
				0.9891524910926819,
				0.9891526103019714,
				0.9891524314880371
			],
			"translation":[
				0.2231614589691162,
				0.1610529124736786,
				-0.04475025087594986
			]
		},
		{
			"mesh":4,
			"name":"Chispas1",
			"rotation":[
				0.6276014447212219,
				0.2952444553375244,
				-0.6095141172409058,
				0.3839787244796753
			],
			"scale":[
				0.9891524910926819,
				0.9891526103019714,
				0.9891524314880371
			],
			"translation":[
				0.2231614589691162,
				0.1610529124736786,
				-0.04475025087594986
			]
		},
		{
			"mesh":5,
			"name":"Chispas4",
			"rotation":[
				0.6276014447212219,
				0.2952444553375244,
				-0.6095141172409058,
				0.3839787244796753
			],
			"scale":[
				0.9891524910926819,
				0.9891526103019714,
				0.9891524314880371
			],
			"translation":[
				0.2231614589691162,
				0.1610529124736786,
				-0.04475025087594986
			]
		}
	],
	"materials":[
		{
			"doubleSided":true,
			"name":"Icing",
			"pbrMetallicRoughness":{
				"baseColorFactor":[
					0.9646860957145691,
					0.24620091915130615,
					0.46207690238952637,
					1
				],
				"metallicFactor":0,
				"roughnessFactor":0.3692307472229004
			}
		},
		{
			"doubleSided":true,
			"name":"Material.003",
			"pbrMetallicRoughness":{
				"baseColorTexture":{
					"index":0
				},
				"metallicFactor":0,
				"roughnessFactor":0.5
			}
		},
		{
			"doubleSided":true,
			"name":"Chispas3",
			"pbrMetallicRoughness":{
				"baseColorFactor":[
					0.7991025447845459,
					0.6307567954063416,
					0.2422812283039093,
					1
				],
				"metallicFactor":0
			}
		},
		{
			"doubleSided":true,
			"name":"Chispas2",
			"pbrMetallicRoughness":{
				"baseColorFactor":[
					0.799102783203125,
					0.0843757838010788,
					0.6104956269264221,
					1
				],
				"metallicFactor":0
			}
		},
		{
			"doubleSided":true,
			"name":"Chispas1",
			"pbrMetallicRoughness":{
				"baseColorFactor":[
					0.05951055511832237,
					0.2663552463054657,
					0.799102783203125,
					1
				],
				"metallicFactor":0
			}
		},
		{
			"doubleSided":true,
			"name":"Chispas4",
			"pbrMetallicRoughness":{
				"baseColorFactor":[
					0.15187039971351624,
					0.09903829544782639,
					0.8000000715255737,
					1
				],
				"metallicFactor":0
			}
		}
	],
	"meshes":[
		{
			"name":"Glaseado",
			"primitives":[
				{
					"attributes":{
						"POSITION":0,
						"TEXCOORD_0":1,
						"NORMAL":2
					},
					"indices":3,
					"material":0
				}
			]
		},
		{
			"name":"DonaPan",
			"primitives":[
				{
					"attributes":{
						"POSITION":4,
						"TEXCOORD_0":5,
						"NORMAL":6
					},
					"indices":7,
					"material":1
				}
			]
		},
		{
			"name":"Chispitas.185",
			"primitives":[
				{
					"attributes":{
						"POSITION":8,
						"TEXCOORD_0":9,
						"NORMAL":10
					},
					"indices":11,
					"material":2
				}
			]
		},
		{
			"name":"Chispitas.281",
			"primitives":[
				{
					"attributes":{
						"POSITION":12,
						"TEXCOORD_0":13,
						"NORMAL":14
					},
					"indices":15,
					"material":3
				}
			]
		},
		{
			"name":"Chispitas.446",
			"primitives":[
				{
					"attributes":{
						"POSITION":16,
						"TEXCOORD_0":17,
						"NORMAL":18
					},
					"indices":19,
					"material":4
				}
			]
		},
		{
			"name":"Chispitas.448",
			"primitives":[
				{
					"attributes":{
						"POSITION":20,
						"TEXCOORD_0":21,
						"NORMAL":22
					},
					"indices":23,
					"material":5
				}
			]
		}
	],
	"textures":[
		{
			"sampler":0,
			"source":0
		}
	],
	"images":[
		{
			"mimeType":"image/png",
			"name":"Donut_Texture2",
			"uri":"Donut_Texture2.png"
		}
	],
	"accessors":[
		{
			"bufferView":0,
			"componentType":5126,
			"count":83376,
			"max":[
				1.8451192378997803,
				0.7180759310722351,
				1.869513988494873
			],
			"min":[
				-1.7258679866790771,
				-0.014183561317622662,
				-1.8581211566925049
			],
			"type":"VEC3"
		},
		{
			"bufferView":1,
			"componentType":5126,
			"count":83376,
			"type":"VEC2"
		},
		{
			"bufferView":2,
			"componentType":5126,
			"count":83376,
			"type":"VEC3"
		},
		{
			"bufferView":3,
			"componentType":5125,
			"count":499200,
			"type":"SCALAR"
		},
		{
			"bufferView":4,
			"componentType":5126,
			"count":104625,
			"max":[
				1.8144783973693848,
				0.669184148311615,
				1.8171321153640747
			],
			"min":[
				-1.6766692399978638,
				-0.6403502821922302,
				-1.8030612468719482
			],
			"type":"VEC3"
		},
		{
			"bufferView":5,
			"componentType":5126,
			"count":104625,
			"type":"VEC2"
		},
		{
			"bufferView":6,
			"componentType":5126,
			"count":104625,
			"type":"VEC3"
		},
		{
			"bufferView":7,
			"componentType":5125,
			"count":623616,
			"type":"SCALAR"
		},
		{
			"bufferView":8,
			"componentType":5126,
			"count":18225,
			"max":[
				0.1930515468120575,
				0.03367052972316742,
				0.2802504301071167
			],
			"min":[
				-0.2903195917606354,
				-0.35951879620552063,
				-0.0021345417480915785
			],
			"type":"VEC3"
		},
		{
			"bufferView":9,
			"componentType":5126,
			"count":18225,
			"type":"VEC2"
		},
		{
			"bufferView":10,
			"componentType":5126,
			"count":18225,
			"type":"VEC3"
		},
		{
			"bufferView":11,
			"componentType":5123,
			"count":79056,
			"type":"SCALAR"
		},
		{
			"bufferView":12,
			"componentType":5126,
			"count":12979,
			"max":[
				0.17252755165100098,
				0.028613541275262833,
				0.27122828364372253
			],
			"min":[
				-0.29591891169548035,
				-0.35973286628723145,
				-0.00834822840988636
			],
			"type":"VEC3"
		},
		{
			"bufferView":13,
			"componentType":5126,
			"count":12979,
			"type":"VEC2"
		},
		{
			"bufferView":14,
			"componentType":5126,
			"count":12979,
			"type":"VEC3"
		},
		{
			"bufferView":15,
			"componentType":5123,
			"count":56880,
			"type":"SCALAR"
		},
		{
			"bufferView":16,
			"componentType":5126,
			"count":15527,
			"max":[
				0.173532634973526,
				0.028859153389930725,
				0.27105435729026794
			],
			"min":[
				-0.3154764473438263,
				-0.35896214842796326,
				-0.0040590474382042885
			],
			"type":"VEC3"
		},
		{
			"bufferView":17,
			"componentType":5126,
			"count":15527,
			"type":"VEC2"
		},
		{
			"bufferView":18,
			"componentType":5126,
			"count":15527,
			"type":"VEC3"
		},
		{
			"bufferView":19,
			"componentType":5123,
			"count":67896,
			"type":"SCALAR"
		},
		{
			"bufferView":20,
			"componentType":5126,
			"count":13786,
			"max":[
				0.18951085209846497,
				0.04366994649171829,
				0.25901105999946594
			],
			"min":[
				-0.3084837794303894,
				-0.35416385531425476,
				-0.007522020488977432
			],
			"type":"VEC3"
		},
		{
			"bufferView":21,
			"componentType":5126,
			"count":13786,
			"type":"VEC2"
		},
		{
			"bufferView":22,
			"componentType":5126,
			"count":13786,
			"type":"VEC3"
		},
		{
			"bufferView":23,
			"componentType":5123,
			"count":60192,
			"type":"SCALAR"
		}
	],
	"bufferViews":[
		{
			"buffer":0,
			"byteLength":1000512,
			"byteOffset":0,
			"target":34962
		},
		{
			"buffer":0,
			"byteLength":667008,
			"byteOffset":1000512,
			"target":34962
		},
		{
			"buffer":0,
			"byteLength":1000512,
			"byteOffset":1667520,
			"target":34962
		},
		{
			"buffer":0,
			"byteLength":1996800,
			"byteOffset":2668032,
			"target":34963
		},
		{
			"buffer":0,
			"byteLength":1255500,
			"byteOffset":4664832,
			"target":34962
		},
		{
			"buffer":0,
			"byteLength":837000,
			"byteOffset":5920332,
			"target":34962
		},
		{
			"buffer":0,
			"byteLength":1255500,
			"byteOffset":6757332,
			"target":34962
		},
		{
			"buffer":0,
			"byteLength":2494464,
			"byteOffset":8012832,
			"target":34963
		},
		{
			"buffer":0,
			"byteLength":218700,
			"byteOffset":10507296,
			"target":34962
		},
		{
			"buffer":0,
			"byteLength":145800,
			"byteOffset":10725996,
			"target":34962
		},
		{
			"buffer":0,
			"byteLength":218700,
			"byteOffset":10871796,
			"target":34962
		},
		{
			"buffer":0,
			"byteLength":158112,
			"byteOffset":11090496,
			"target":34963
		},
		{
			"buffer":0,
			"byteLength":155748,
			"byteOffset":11248608,
			"target":34962
		},
		{
			"buffer":0,
			"byteLength":103832,
			"byteOffset":11404356,
			"target":34962
		},
		{
			"buffer":0,
			"byteLength":155748,
			"byteOffset":11508188,
			"target":34962
		},
		{
			"buffer":0,
			"byteLength":113760,
			"byteOffset":11663936,
			"target":34963
		},
		{
			"buffer":0,
			"byteLength":186324,
			"byteOffset":11777696,
			"target":34962
		},
		{
			"buffer":0,
			"byteLength":124216,
			"byteOffset":11964020,
			"target":34962
		},
		{
			"buffer":0,
			"byteLength":186324,
			"byteOffset":12088236,
			"target":34962
		},
		{
			"buffer":0,
			"byteLength":135792,
			"byteOffset":12274560,
			"target":34963
		},
		{
			"buffer":0,
			"byteLength":165432,
			"byteOffset":12410352,
			"target":34962
		},
		{
			"buffer":0,
			"byteLength":110288,
			"byteOffset":12575784,
			"target":34962
		},
		{
			"buffer":0,
			"byteLength":165432,
			"byteOffset":12686072,
			"target":34962
		},
		{
			"buffer":0,
			"byteLength":120384,
			"byteOffset":12851504,
			"target":34963
		}
	],
	"samplers":[
		{
			"magFilter":9729,
			"minFilter":9987
		}
	],
	"buffers":[
		{
			"byteLength":12971888,
			"uri":"Donut3.bin"
		}
	]
}
