{
	"asset":{
		"generator":"Khronos glTF Blender I/O v3.5.30",
		"version":"2.0"
	},
	"extensionsUsed":[
		"KHR_materials_specular"
	],
	"scene":0,
	"scenes":[
		{
			"name":"Scene",
			"nodes":[
				0,
				1,
				2,
				3,
				4,
				5,
				6,
				7
			]
		}
	],
	"nodes":[
		{
			"mesh":0,
			"name":"Base"
		},
		{
			"mesh":1,
			"name":"Ventana",
			"translation":[
				0.07053795456886292,
				1.1815106868743896,
				-3.54453182220459
			]
		},
		{
			"mesh":2,
			"name":"Puerta",
			"translation":[
				-3.5086097717285156,
				0.2514447271823883,
				-0.1388874053955078
			]
		},
		{
			"mesh":3,
			"name":"Mono",
			"translation":[
				-1.2949857711791992,
				0.25455746054649353,
				1.378495216369629
			]
		},
		{
			"mesh":4,
			"name":"Planta",
			"translation":[
				1.6212272644042969,
				-0.8531346321105957,
				0.021934278309345245
			]
		},
		{
			"mesh":5,
			"name":"Camara",
			"rotation":[
				0,
				0,
				0.16947557032108307,
				0.9855343699455261
			],
			"scale":[
				0.7518735527992249,
				0.5018136501312256,
				0.5018136501312256
			],
			"translation":[
				6.232510089874268,
				3.978339672088623,
				0
			]
		},
		{
			"mesh":6,
			"name":"Luz1",
			"rotation":[
				0.3434487283229828,
				0.2010686695575714,
				0.7916998863220215,
				0.46349290013313293
			],
			"scale":[
				0.3999767601490021,
				0.4969762861728668,
				0.3999767005443573
			],
			"translation":[
				5.865933895111084,
				4.214642524719238,
				-4.248147010803223
			]
		},
		{
			"mesh":7,
			"name":"Luz2",
			"rotation":[
				-0.2398412823677063,
				-0.14041273295879364,
				0.8289884924888611,
				0.4853231608867645
			],
			"scale":[
				0.3999767601490021,
				0.4969763159751892,
				0.3999767005443573
			],
			"translation":[
				5.427893161773682,
				4.214642524719238,
				4.551462650299072
			]
		}
	],
	"materials":[
		{
			"doubleSided":true,
			"name":"Madera",
			"pbrMetallicRoughness":{
				"baseColorFactor":[
					0.052217718213796616,
					0.012909719720482826,
					0,
					1
				],
				"metallicFactor":0
			}
		},
		{
			"doubleSided":true,
			"name":"Picaporte",
			"pbrMetallicRoughness":{
				"baseColorFactor":[
					0.8000000715255737,
					0.2803998291492462,
					0,
					1
				],
				"roughnessFactor":0.28238344192504883
			}
		},
		{
			"doubleSided":true,
			"name":"Material.005",
			"pbrMetallicRoughness":{
				"baseColorFactor":[
					0.8000000715255737,
					0.09079191088676453,
					0.5829359889030457,
					1
				],
				"metallicFactor":0.44041451811790466,
				"roughnessFactor":0.5
			}
		},
		{
			"doubleSided":true,
			"name":"planta",
			"pbrMetallicRoughness":{
				"baseColorFactor":[
					0.09626784920692444,
					0.26667967438697815,
					0,
					1
				],
				"metallicFactor":0,
				"roughnessFactor":0.2979274392127991
			}
		},
		{
			"doubleSided":true,
			"extensions":{
				"KHR_materials_specular":{
					"specularColorFactor":[
						1.9999999999999998,
						1.9999999999999998,
						1.9999999999999998
					]
				}
			},
			"name":"Maceta",
			"pbrMetallicRoughness":{
				"baseColorFactor":[
					0.30311015248298645,
					0.02215529978275299,
					0.003010667860507965,
					1
				],
				"metallicFactor":0,
				"roughnessFactor":0.5
			}
		},
		{
			"doubleSided":true,
			"name":"Tierara",
			"pbrMetallicRoughness":{
				"baseColorFactor":[
					0.1733480542898178,
					0.055539704859256744,
					0.013063869439065456,
					1
				],
				"metallicFactor":0
			}
		},
		{
			"doubleSided":true,
			"name":"Material.009",
			"pbrMetallicRoughness":{
				"baseColorFactor":[
					0.010021649301052094,
					0.010021649301052094,
					0.010021649301052094,
					1
				],
				"metallicFactor":0,
				"roughnessFactor":0.5
			}
		}
	],
	"meshes":[
		{
			"name":"Base",
			"primitives":[
				{
					"attributes":{
						"POSITION":0,
						"TEXCOORD_0":1,
						"NORMAL":2
					},
					"indices":3
				}
			]
		},
		{
			"name":"Ventana",
			"primitives":[
				{
					"attributes":{
						"POSITION":4,
						"TEXCOORD_0":5,
						"NORMAL":6
					},
					"indices":7,
					"material":0
				}
			]
		},
		{
			"name":"Puerta",
			"primitives":[
				{
					"attributes":{
						"POSITION":8,
						"TEXCOORD_0":9,
						"NORMAL":10
					},
					"indices":11,
					"material":1
				},
				{
					"attributes":{
						"POSITION":12,
						"TEXCOORD_0":13,
						"NORMAL":14
					},
					"indices":15,
					"material":0
				}
			]
		},
		{
			"name":"Mono",
			"primitives":[
				{
					"attributes":{
						"POSITION":16,
						"TEXCOORD_0":17,
						"NORMAL":18
					},
					"indices":19,
					"material":2
				}
			]
		},
		{
			"name":"Planta",
			"primitives":[
				{
					"attributes":{
						"POSITION":20,
						"TEXCOORD_0":21,
						"NORMAL":22
					},
					"indices":23,
					"material":3
				},
				{
					"attributes":{
						"POSITION":24,
						"TEXCOORD_0":25,
						"NORMAL":26
					},
					"indices":27,
					"material":4
				},
				{
					"attributes":{
						"POSITION":28,
						"TEXCOORD_0":29,
						"NORMAL":30
					},
					"indices":31,
					"material":5
				}
			]
		},
		{
			"name":"Camara",
			"primitives":[
				{
					"attributes":{
						"POSITION":32,
						"TEXCOORD_0":33,
						"NORMAL":34
					},
					"indices":35,
					"material":6
				}
			]
		},
		{
			"name":"Luz1",
			"primitives":[
				{
					"attributes":{
						"POSITION":36,
						"TEXCOORD_0":37,
						"NORMAL":38
					},
					"indices":39,
					"material":6
				}
			]
		},
		{
			"name":"Luz2",
			"primitives":[
				{
					"attributes":{
						"POSITION":40,
						"TEXCOORD_0":41,
						"NORMAL":42
					},
					"indices":39,
					"material":6
				}
			]
		}
	],
	"accessors":[
		{
			"bufferView":0,
			"componentType":5126,
			"count":44,
			"max":[
				3.5739328861236572,
				4.420388221740723,
				3.5739328861236572
			],
			"min":[
				-3.824108362197876,
				-2.9776530265808105,
				-3.824108362197876
			],
			"type":"VEC3"
		},
		{
			"bufferView":1,
			"componentType":5126,
			"count":44,
			"type":"VEC2"
		},
		{
			"bufferView":2,
			"componentType":5126,
			"count":44,
			"type":"VEC3"
		},
		{
			"bufferView":3,
			"componentType":5123,
			"count":72,
			"type":"SCALAR"
		},
		{
			"bufferView":4,
			"componentType":5126,
			"count":48,
			"max":[
				2.049056053161621,
				2.049055814743042,
				0.19460749626159668
			],
			"min":[
				-2.049056053161621,
				-2.0490562915802,
				-0.19460749626159668
			],
			"type":"VEC3"
		},
		{
			"bufferView":5,
			"componentType":5126,
			"count":48,
			"type":"VEC2"
		},
		{
			"bufferView":6,
			"componentType":5126,
			"count":48,
			"type":"VEC3"
		},
		{
			"bufferView":7,
			"componentType":5123,
			"count":96,
			"type":"SCALAR"
		},
		{
			"bufferView":8,
			"componentType":5126,
			"count":559,
			"max":[
				0.5236372947692871,
				0.1465878188610077,
				-0.9428259134292603
			],
			"min":[
				0.16979527473449707,
				-0.20725436508655548,
				-1.2966680526733398
			],
			"type":"VEC3"
		},
		{
			"bufferView":9,
			"componentType":5126,
			"count":559,
			"type":"VEC2"
		},
		{
			"bufferView":10,
			"componentType":5126,
			"count":559,
			"type":"VEC3"
		},
		{
			"bufferView":11,
			"componentType":5123,
			"count":2880,
			"type":"SCALAR"
		},
		{
			"bufferView":12,
			"componentType":5126,
			"count":24,
			"max":[
				0.19580864906311035,
				2.979121685028076,
				1.4976603984832764
			],
			"min":[
				-0.19809341430664062,
				-2.978922128677368,
				-1.4902808666229248
			],
			"type":"VEC3"
		},
		{
			"bufferView":13,
			"componentType":5126,
			"count":24,
			"type":"VEC2"
		},
		{
			"bufferView":14,
			"componentType":5126,
			"count":24,
			"type":"VEC3"
		},
		{
			"bufferView":15,
			"componentType":5123,
			"count":36,
			"type":"SCALAR"
		},
		{
			"bufferView":16,
			"componentType":5126,
			"count":2111,
			"max":[
				1.025240182876587,
				0.7779437303543091,
				1.060938835144043
			],
			"min":[
				-1.3601980209350586,
				-1.3214118480682373,
				-1.5122249126434326
			],
			"type":"VEC3"
		},
		{
			"bufferView":17,
			"componentType":5126,
			"count":2111,
			"type":"VEC2"
		},
		{
			"bufferView":18,
			"componentType":5126,
			"count":2111,
			"type":"VEC3"
		},
		{
			"bufferView":19,
			"componentType":5123,
			"count":11808,
			"type":"SCALAR"
		},
		{
			"bufferView":20,
			"componentType":5126,
			"count":8464,
			"max":[
				2.2394304275512695,
				2.7781081199645996,
				2.1715128421783447
			],
			"min":[
				-1.9794130325317383,
				-1.804093360900879,
				-2.2573189735412598
			],
			"type":"VEC3"
		},
		{
			"bufferView":21,
			"componentType":5126,
			"count":8464,
			"type":"VEC2"
		},
		{
			"bufferView":22,
			"componentType":5126,
			"count":8464,
			"type":"VEC3"
		},
		{
			"bufferView":23,
			"componentType":5123,
			"count":46080,
			"type":"SCALAR"
		},
		{
			"bufferView":24,
			"componentType":5126,
			"count":418,
			"max":[
				0.9381623864173889,
				0.012035369873046875,
				0.9204599857330322
			],
			"min":[
				-0.9466264247894287,
				-1.8798599243164062,
				-0.9643288850784302
			],
			"type":"VEC3"
		},
		{
			"bufferView":25,
			"componentType":5126,
			"count":418,
			"type":"VEC2"
		},
		{
			"bufferView":26,
			"componentType":5126,
			"count":418,
			"type":"VEC3"
		},
		{
			"bufferView":27,
			"componentType":5123,
			"count":1716,
			"type":"SCALAR"
		},
		{
			"bufferView":28,
			"componentType":5126,
			"count":192,
			"max":[
				0.8721819519996643,
				-0.1895761489868164,
				0.865471601486206
			],
			"min":[
				-0.9151238203048706,
				-0.23097991943359375,
				-0.9218342304229736
			],
			"type":"VEC3"
		},
		{
			"bufferView":29,
			"componentType":5126,
			"count":192,
			"type":"VEC2"
		},
		{
			"bufferView":30,
			"componentType":5126,
			"count":192,
			"type":"VEC3"
		},
		{
			"bufferView":31,
			"componentType":5123,
			"count":372,
			"type":"SCALAR"
		},
		{
			"bufferView":32,
			"componentType":5126,
			"count":144,
			"max":[
				1.3571233749389648,
				1,
				1
			],
			"min":[
				-1.2709589004516602,
				-1,
				-1
			],
			"type":"VEC3"
		},
		{
			"bufferView":33,
			"componentType":5126,
			"count":144,
			"type":"VEC2"
		},
		{
			"bufferView":34,
			"componentType":5126,
			"count":144,
			"type":"VEC3"
		},
		{
			"bufferView":35,
			"componentType":5123,
			"count":204,
			"type":"SCALAR"
		},
		{
			"bufferView":36,
			"componentType":5126,
			"count":162,
			"max":[
				1.6004674434661865,
				2.0667667388916016,
				1.5698516368865967
			],
			"min":[
				-1.5392348766326904,
				-1,
				-1.5698506832122803
			],
			"type":"VEC3"
		},
		{
			"bufferView":37,
			"componentType":5126,
			"count":162,
			"type":"VEC2"
		},
		{
			"bufferView":38,
			"componentType":5126,
			"count":162,
			"type":"VEC3"
		},
		{
			"bufferView":39,
			"componentType":5123,
			"count":324,
			"type":"SCALAR"
		},
		{
			"bufferView":40,
			"componentType":5126,
			"count":162,
			"max":[
				1.6004674434661865,
				2.0667667388916016,
				1.5698516368865967
			],
			"min":[
				-1.5392348766326904,
				-1,
				-1.5698506832122803
			],
			"type":"VEC3"
		},
		{
			"bufferView":41,
			"componentType":5126,
			"count":162,
			"type":"VEC2"
		},
		{
			"bufferView":42,
			"componentType":5126,
			"count":162,
			"type":"VEC3"
		}
	],
	"bufferViews":[
		{
			"buffer":0,
			"byteLength":528,
			"byteOffset":0,
			"target":34962
		},
		{
			"buffer":0,
			"byteLength":352,
			"byteOffset":528,
			"target":34962
		},
		{
			"buffer":0,
			"byteLength":528,
			"byteOffset":880,
			"target":34962
		},
		{
			"buffer":0,
			"byteLength":144,
			"byteOffset":1408,
			"target":34963
		},
		{
			"buffer":0,
			"byteLength":576,
			"byteOffset":1552,
			"target":34962
		},
		{
			"buffer":0,
			"byteLength":384,
			"byteOffset":2128,
			"target":34962
		},
		{
			"buffer":0,
			"byteLength":576,
			"byteOffset":2512,
			"target":34962
		},
		{
			"buffer":0,
			"byteLength":192,
			"byteOffset":3088,
			"target":34963
		},
		{
			"buffer":0,
			"byteLength":6708,
			"byteOffset":3280,
			"target":34962
		},
		{
			"buffer":0,
			"byteLength":4472,
			"byteOffset":9988,
			"target":34962
		},
		{
			"buffer":0,
			"byteLength":6708,
			"byteOffset":14460,
			"target":34962
		},
		{
			"buffer":0,
			"byteLength":5760,
			"byteOffset":21168,
			"target":34963
		},
		{
			"buffer":0,
			"byteLength":288,
			"byteOffset":26928,
			"target":34962
		},
		{
			"buffer":0,
			"byteLength":192,
			"byteOffset":27216,
			"target":34962
		},
		{
			"buffer":0,
			"byteLength":288,
			"byteOffset":27408,
			"target":34962
		},
		{
			"buffer":0,
			"byteLength":72,
			"byteOffset":27696,
			"target":34963
		},
		{
			"buffer":0,
			"byteLength":25332,
			"byteOffset":27768,
			"target":34962
		},
		{
			"buffer":0,
			"byteLength":16888,
			"byteOffset":53100,
			"target":34962
		},
		{
			"buffer":0,
			"byteLength":25332,
			"byteOffset":69988,
			"target":34962
		},
		{
			"buffer":0,
			"byteLength":23616,
			"byteOffset":95320,
			"target":34963
		},
		{
			"buffer":0,
			"byteLength":101568,
			"byteOffset":118936,
			"target":34962
		},
		{
			"buffer":0,
			"byteLength":67712,
			"byteOffset":220504,
			"target":34962
		},
		{
			"buffer":0,
			"byteLength":101568,
			"byteOffset":288216,
			"target":34962
		},
		{
			"buffer":0,
			"byteLength":92160,
			"byteOffset":389784,
			"target":34963
		},
		{
			"buffer":0,
			"byteLength":5016,
			"byteOffset":481944,
			"target":34962
		},
		{
			"buffer":0,
			"byteLength":3344,
			"byteOffset":486960,
			"target":34962
		},
		{
			"buffer":0,
			"byteLength":5016,
			"byteOffset":490304,
			"target":34962
		},
		{
			"buffer":0,
			"byteLength":3432,
			"byteOffset":495320,
			"target":34963
		},
		{
			"buffer":0,
			"byteLength":2304,
			"byteOffset":498752,
			"target":34962
		},
		{
			"buffer":0,
			"byteLength":1536,
			"byteOffset":501056,
			"target":34962
		},
		{
			"buffer":0,
			"byteLength":2304,
			"byteOffset":502592,
			"target":34962
		},
		{
			"buffer":0,
			"byteLength":744,
			"byteOffset":504896,
			"target":34963
		},
		{
			"buffer":0,
			"byteLength":1728,
			"byteOffset":505640,
			"target":34962
		},
		{
			"buffer":0,
			"byteLength":1152,
			"byteOffset":507368,
			"target":34962
		},
		{
			"buffer":0,
			"byteLength":1728,
			"byteOffset":508520,
			"target":34962
		},
		{
			"buffer":0,
			"byteLength":408,
			"byteOffset":510248,
			"target":34963
		},
		{
			"buffer":0,
			"byteLength":1944,
			"byteOffset":510656,
			"target":34962
		},
		{
			"buffer":0,
			"byteLength":1296,
			"byteOffset":512600,
			"target":34962
		},
		{
			"buffer":0,
			"byteLength":1944,
			"byteOffset":513896,
			"target":34962
		},
		{
			"buffer":0,
			"byteLength":648,
			"byteOffset":515840,
			"target":34963
		},
		{
			"buffer":0,
			"byteLength":1944,
			"byteOffset":516488,
			"target":34962
		},
		{
			"buffer":0,
			"byteLength":1296,
			"byteOffset":518432,
			"target":34962
		},
		{
			"buffer":0,
			"byteLength":1944,
			"byteOffset":519728,
			"target":34962
		}
	],
	"buffers":[
		{
			"byteLength":521672,
			"uri":"EscenaIluminacion02.bin"
		}
	]
}
